<mxfile host="65bd71144e">
    <diagram id="GBEZf7GyYmm0-5xm0Ph-" name="Page-1">
        <mxGraphModel dx="2513" dy="1181" grid="1" gridSize="10" guides="1" tooltips="1" connect="1" arrows="1" fold="1" page="1" pageScale="1" pageWidth="1100" pageHeight="850" math="0" shadow="0">
            <root>
                <mxCell id="0"/>
                <mxCell id="1" parent="0"/>
                <mxCell id="25" value="" style="rounded=1;whiteSpace=wrap;html=1;arcSize=6;" vertex="1" parent="1">
                    <mxGeometry x="1195" y="370" width="230" height="220" as="geometry"/>
                </mxCell>
                <mxCell id="36" style="edgeStyle=none;html=1;exitX=1;exitY=0.5;exitDx=0;exitDy=0;entryX=0;entryY=0.5;entryDx=0;entryDy=0;" edge="1" parent="1" source="7" target="27">
                    <mxGeometry relative="1" as="geometry"/>
                </mxCell>
                <mxCell id="7" value="Python&lt;br style=&quot;font-size: 19px;&quot;&gt;Flask" style="rounded=1;whiteSpace=wrap;html=1;arcSize=6;fontFamily=Sarabun;fontSize=19;" parent="1" vertex="1">
                    <mxGeometry x="690" y="690" width="280" height="320" as="geometry"/>
                </mxCell>
                <mxCell id="35" style="edgeStyle=none;html=1;exitX=1;exitY=0.5;exitDx=0;exitDy=0;entryX=0;entryY=0.5;entryDx=0;entryDy=0;" edge="1" parent="1" source="24" target="7">
                    <mxGeometry relative="1" as="geometry"/>
                </mxCell>
                <mxCell id="24" value="" style="rounded=1;whiteSpace=wrap;html=1;arcSize=4;" vertex="1" parent="1">
                    <mxGeometry x="80" y="600" width="430" height="490" as="geometry"/>
                </mxCell>
                <mxCell id="3" value="Sample Web Application&lt;br style=&quot;font-size: 19px;&quot;&gt;Full-Stack Python Web" style="text;html=1;strokeColor=none;fillColor=none;align=center;verticalAlign=middle;whiteSpace=wrap;rounded=0;fontFamily=Sarabun;fontSize=19;" parent="1" vertex="1">
                    <mxGeometry x="80" y="230" width="280" height="50" as="geometry"/>
                </mxCell>
                <mxCell id="4" value="HTML&lt;br style=&quot;font-size: 19px;&quot;&gt;CSS&lt;br style=&quot;font-size: 19px;&quot;&gt;JavaScript&lt;br style=&quot;font-size: 19px;&quot;&gt;Bootstrap 5" style="rounded=1;whiteSpace=wrap;html=1;arcSize=3;fontFamily=Sarabun;fontSize=19;" parent="1" vertex="1">
                    <mxGeometry x="130" y="675" width="140" height="250" as="geometry"/>
                </mxCell>
                <mxCell id="5" value="Frontend" style="text;html=1;strokeColor=none;fillColor=none;align=center;verticalAlign=middle;whiteSpace=wrap;rounded=0;fontFamily=Sarabun;fontSize=19;" parent="1" vertex="1">
                    <mxGeometry x="80" y="550" width="160" height="30" as="geometry"/>
                </mxCell>
                <mxCell id="6" value="Backend" style="text;html=1;strokeColor=none;fillColor=none;align=center;verticalAlign=middle;whiteSpace=wrap;rounded=0;fontFamily=Sarabun;fontSize=19;" parent="1" vertex="1">
                    <mxGeometry x="690" y="645" width="110" height="30" as="geometry"/>
                </mxCell>
                <mxCell id="13" style="edgeStyle=none;html=1;exitX=1;exitY=0.25;exitDx=0;exitDy=0;entryX=0;entryY=0.5;entryDx=0;entryDy=0;" parent="1" source="7" target="25" edge="1">
                    <mxGeometry relative="1" as="geometry"/>
                </mxCell>
                <mxCell id="8" value="Database" style="text;html=1;strokeColor=none;fillColor=none;align=center;verticalAlign=middle;whiteSpace=wrap;rounded=0;fontFamily=Sarabun;fontSize=19;" parent="1" vertex="1">
                    <mxGeometry x="1730" y="565" width="160" height="30" as="geometry"/>
                </mxCell>
                <mxCell id="9" value="MySQL" style="rounded=1;whiteSpace=wrap;html=1;arcSize=6;fontFamily=Sarabun;fontSize=19;" parent="1" vertex="1">
                    <mxGeometry x="1780" y="640" width="160" height="250" as="geometry"/>
                </mxCell>
                <mxCell id="10" value="Routers" style="sketch=0;aspect=fixed;html=1;points=[];align=center;image;fontSize=12;image=img/lib/mscae/Route_Filter.svg;" parent="1" vertex="1">
                    <mxGeometry x="930" y="650" width="83.33" height="70" as="geometry"/>
                </mxCell>
                <mxCell id="15" style="edgeStyle=none;html=1;exitX=1;exitY=0.5;exitDx=0;exitDy=0;entryX=0;entryY=0.25;entryDx=0;entryDy=0;" parent="1" source="25" target="9" edge="1">
                    <mxGeometry relative="1" as="geometry"/>
                </mxCell>
                <mxCell id="11" value="Login" style="rounded=1;whiteSpace=wrap;html=1;arcSize=50;fontFamily=Sarabun;fontSize=19;" parent="1" vertex="1">
                    <mxGeometry x="1240" y="410" width="140" height="50" as="geometry"/>
                </mxCell>
                <mxCell id="12" value="Register" style="rounded=1;whiteSpace=wrap;html=1;arcSize=50;fontFamily=Sarabun;fontSize=19;" parent="1" vertex="1">
                    <mxGeometry x="1240" y="495" width="140" height="50" as="geometry"/>
                </mxCell>
                <mxCell id="16" value="Database" style="image;html=1;image=img/lib/clip_art/computers/Database_128x128.png" parent="1" vertex="1">
                    <mxGeometry x="1890" y="595" width="80" height="80" as="geometry"/>
                </mxCell>
                <mxCell id="21" value="Jinja2 Template" style="rounded=0;whiteSpace=wrap;html=1;fontSize=18;" parent="1" vertex="1">
                    <mxGeometry x="290" y="865" width="170" height="60" as="geometry"/>
                </mxCell>
                <mxCell id="22" value="" style="shape=image;verticalLabelPosition=bottom;labelBackgroundColor=default;verticalAlign=top;aspect=fixed;imageAspect=0;image=https://upload.wikimedia.org/wikipedia/commons/thumb/8/87/Jinja_software_logo.svg/1200px-Jinja_software_logo.svg.png;" vertex="1" parent="1">
                    <mxGeometry x="370" y="810" width="125" height="50" as="geometry"/>
                </mxCell>
                <mxCell id="26" value="Authentication" style="text;html=1;strokeColor=none;fillColor=none;align=center;verticalAlign=middle;whiteSpace=wrap;rounded=0;fontFamily=Sarabun;fontSize=19;" vertex="1" parent="1">
                    <mxGeometry x="1195" y="330" width="145" height="30" as="geometry"/>
                </mxCell>
                <mxCell id="29" style="edgeStyle=none;html=1;exitX=1;exitY=0.5;exitDx=0;exitDy=0;" edge="1" parent="1" source="27" target="9">
                    <mxGeometry relative="1" as="geometry"/>
                </mxCell>
                <mxCell id="27" value="" style="rounded=1;whiteSpace=wrap;html=1;arcSize=6;" vertex="1" parent="1">
                    <mxGeometry x="1200" y="720" width="230" height="260" as="geometry"/>
                </mxCell>
                <mxCell id="28" value="CRUD" style="text;html=1;strokeColor=none;fillColor=none;align=center;verticalAlign=middle;whiteSpace=wrap;rounded=0;fontFamily=Sarabun;fontSize=19;" vertex="1" parent="1">
                    <mxGeometry x="1200" y="680" width="145" height="30" as="geometry"/>
                </mxCell>
                <mxCell id="31" value="Users" style="rounded=1;whiteSpace=wrap;html=1;arcSize=50;fontFamily=Sarabun;fontSize=19;" vertex="1" parent="1">
                    <mxGeometry x="1245" y="750" width="140" height="50" as="geometry"/>
                </mxCell>
                <mxCell id="32" value="Work Orders" style="rounded=1;whiteSpace=wrap;html=1;arcSize=50;fontFamily=Sarabun;fontSize=19;" vertex="1" parent="1">
                    <mxGeometry x="1245" y="820" width="140" height="50" as="geometry"/>
                </mxCell>
                <mxCell id="33" value="Schedule task" style="rounded=1;whiteSpace=wrap;html=1;arcSize=50;fontFamily=Sarabun;fontSize=19;" vertex="1" parent="1">
                    <mxGeometry x="1245" y="890" width="140" height="50" as="geometry"/>
                </mxCell>
            </root>
        </mxGraphModel>
    </diagram>
</mxfile>